<svg width="41" height="40" viewBox="0 0 41 40" fill="none" xmlns="http://www.w3.org/2000/svg">
<path d="M36.8278 11.0782C36.3042 9.8658 35.5493 8.76717 34.6052 7.84378C33.6604 6.91763 32.5464 6.18163 31.3239 5.67581C30.0562 5.14922 28.6966 4.87968 27.3239 4.88284C25.3981 4.88284 23.5192 5.41018 21.8864 6.40628C21.4958 6.64456 21.1247 6.90628 20.7731 7.19143C20.4216 6.90628 20.0505 6.64456 19.6599 6.40628C18.027 5.41018 16.1481 4.88284 14.2224 4.88284C12.8356 4.88284 11.4919 5.14847 10.2224 5.67581C8.99579 6.18362 7.89032 6.91409 6.9411 7.84378C5.99578 8.76613 5.24062 9.86501 4.71844 11.0782C4.17548 12.3399 3.89813 13.6797 3.89813 15.0586C3.89813 16.3594 4.16376 17.7149 4.6911 19.0938C5.13251 20.2461 5.76532 21.4414 6.57391 22.6485C7.85516 24.5586 9.61688 26.5508 11.8044 28.5703C15.4294 31.918 19.0192 34.2305 19.1716 34.3242L20.0974 34.918C20.5075 35.1797 21.0349 35.1797 21.445 34.918L22.3708 34.3242C22.5231 34.2266 26.1091 31.918 29.738 28.5703C31.9255 26.5508 33.6872 24.5586 34.9684 22.6485C35.777 21.4414 36.4138 20.2461 36.8513 19.0938C37.3786 17.7149 37.6442 16.3594 37.6442 15.0586C37.6481 13.6797 37.3708 12.3399 36.8278 11.0782V11.0782ZM20.7731 31.8282C20.7731 31.8282 6.86688 22.918 6.86688 15.0586C6.86688 11.0782 10.1599 7.85159 14.2224 7.85159C17.0778 7.85159 19.5544 9.44534 20.7731 11.7735C21.9919 9.44534 24.4684 7.85159 27.3239 7.85159C31.3864 7.85159 34.6794 11.0782 34.6794 15.0586C34.6794 22.918 20.7731 31.8282 20.7731 31.8282Z" fill="#1890FF"/>
</svg>
